**ABCDEFGHIJKLMNOPQRSTUVWXYZabcdefghijklmnopqrstuvwxyz**************************
**PARASOLID !"#$%&'()*+,-./:;<=>?@[\]^_`{|}~0123456789**************************
**PART1;
MC=unknown;
MC_MODEL=unknown;
MC_ID=unknown;
OS=unknown;
OS_RELEASE=unknown;
FRU=Parasolid 34.1.198;
APPL=Onshape;
SITE=unknown;
USER=unknown;
FORMAT=text;
GUISE=transmit;
KEY=BTGapi::writeModels_.xmt;
FILE=BTGapi::writeModels_.xmt;
DATE=2022-12-13T05:04:24 (UTC);
**PART2;
SCH=SCH_3401198_34101;
USFLD_SIZE=0;
**PART3;
**END_OF_HEADER*****************************************************************
T51 : TRANSMIT FILE created by modeller version 340119823 SCH_3401198_34101_1300
6231 0 12 36 CCCI7 lattice222 0 CCCI4 mesh1006 0 I8 polyline1008 0 CCCCCCCDI5 ow
ner1040 0 CCCI16 boundary_lattice222 0 CCCI13 boundary_mesh1006 0 I17 boundary_p
olyline1008 0 CCCA16 index_map_offset0 0 1 dA9 index_map82 0 A17 node_id_index_m
ap82 0 A20 schema_embedding_map82 0 A5 child12 0 A14 lowest_node_id0 0 1 dA16 me
sh_offset_data206 0 Z1 1654 2 3 0 0 0 0 0 0 0 1e3 1e-8 0 4 5 1 0 1 1 6 0 7 8 9 0
 0 10 11 12 0 0 0 0 0 0 0 81 255 1 2 1610 13 1 14 0 0 0 15 70 11 CI9 list_type0
 0 1 uI10 notransmit0 0 1 lCCCDCCDI12 finger_index0 0 1 dI12 finger_block1012 0
 CZ3 0 4 T1 0 0 5 20 1 16 16 13 255 6 137 0 1 0 17 0 0 18 0 51 255 7 1472 0 19 2
0 0 0 +-.0595 -.0075 .045 0 0 -1 .003 -1 0 0 32 255 8 1481 0 21 22 0 0 +-.0595 -
.0075 .003 .707106781186548 883177008009624e-31 -.707106781186548 -.707106781186
548 -883177008009624e-31 -.707106781186548 .004242640687119285 .003 29 255 9 139
1 0 12 23 0 .0595 -.0105 .003 19 9 CCCCCCI5 frame230 0 CA5 owner12 0 Z10 48 0 1
 18 0 24 0 V0 16 255 11 1393 25 ?26 0 27 28 0 0 1 18 255 12 1389 29 30 0 31 9 ?1
 81 1 29 1543 32 12 0 0 33 34 35 17 255 30 0 36 26 37 12 38 27 0 39 +18 31 1385
 40 37 12 41 23 ?1 81 1 40 1552 32 31 0 0 42 43 44 17 37 0 36 30 45 31 46 47 0 4
8 +18 41 1376 49 50 31 51 52 ?1 29 23 1387 0 31 52 9 -.0595 -.0105 .003 29 52 13
78 0 41 53 23 .0625 .0075 .003 29 53 1374 0 51 54 52 .0625 -.0075 .003 18 51 137
2 34 55 41 56 53 ?1 29 54 1365 0 56 57 53 .0595 .0075 0 18 56 1363 58 59 51 60 5
4 ?1 29 57 1361 0 60 61 54 .0595 -.0075 0 18 60 1359 62 63 56 64 57 ?1 29 61 133
8 0 64 65 57 -.0595 -.0105 .045 18 64 1335 66 67 60 68 61 ?1 29 65 1334 0 68 69
 61 .0625 .0075 .045 18 68 1331 70 71 64 72 65 ?1 29 69 1330 0 72 73 65 .0625 -.
0075 .045 18 72 1327 74 75 68 76 69 ?1 29 73 1326 0 76 77 69 .0595 -.0105 .045 1
8 76 1323 78 26 72 79 73 ?1 29 77 1316 0 79 80 73 -.0595 .0105 .003 18 79 1314 8
1 82 76 83 77 ?1 29 80 1312 0 83 84 77 .0595 .0105 .003 18 83 1310 85 86 79 87 8
0 ?1 29 84 1309 0 87 88 80 -.0595 .0105 .045 18 87 1306 89 90 83 91 84 ?1 29 88
 1305 0 91 92 84 .0595 .0105 .045 18 91 1302 93 94 87 95 88 ?1 29 92 1291 0 95 9
6 88 -.0625 .0075 .045 18 95 1288 97 98 91 99 92 ?1 29 96 1287 0 99 100 92 -.062
5 -.0075 .045 18 99 1284 43 101 95 102 96 ?1 29 100 1283 0 102 103 96 -.0625 .00
75 0 18 102 1280 104 105 99 106 100 ?1 29 103 1279 0 106 107 100 -.0625 -.0075 0
 18 106 1276 42 108 102 109 103 ?1 29 107 385 0 109 110 103 .0545 -.0075 .008 18
 109 383 111 112 106 113 107 ?1 29 110 203 0 113 114 107 -.0575 .0055 .045 18 11
3 201 115 116 109 117 110 ?1 29 114 332 0 118 119 110 -.0575 -.0075 .045 18 118
 286 120 121 122 123 114 ?1 29 119 334 0 123 124 114 .0575 .0055 .045 18 123 278
 125 126 118 127 119 ?1 29 124 335 0 127 128 119 .0575 -.0075 .045 18 127 274 12
9 130 123 131 124 ?1 29 128 336 0 117 132 124 -.0575 -.0075 .005 18 117 272 133
 134 113 135 128 ?1 29 132 337 0 135 136 128 -.0575 .0055 .005 18 135 284 137 13
8 117 139 132 ?1 29 136 338 0 139 140 132 .0575 .0055 .005 18 139 280 141 142 13
5 122 136 ?1 29 140 339 0 122 143 136 .0575 -.0075 .005 18 122 276 144 145 139 1
18 140 ?1 29 143 562 0 146 147 140 .0545 -.0075 .045 18 146 516 148 149 150 151
 143 ?1 29 147 563 0 151 152 143 .0545 -.0105 .045 18 151 512 153 154 146 155 14
7 ?1 29 152 564 0 155 156 147 -.0545 -.0105 .045 18 155 508 157 158 151 159 152
 ?1 29 156 565 0 159 160 152 -.0545 -.0075 .045 18 159 504 161 162 155 0 156 ?1
 29 160 567 0 131 163 156 .0545 -.0105 .008 18 131 514 164 165 127 166 160 ?1 29
 163 568 0 166 167 160 -.0545 -.0105 .008 18 166 510 168 169 131 150 163 ?1 29 1
67 569 0 150 0 163 -.0545 -.0075 .008 18 150 506 170 171 166 146 167 ?1 81 1 170
 575 32 150 0 0 161 153 172 17 171 0 173 162 169 150 174 175 0 176 -15 255 173 5
25 0 158 177 0 17 162 0 173 158 171 159 178 179 0 180 +17 169 0 173 171 158 166
 181 182 0 174 -17 174 0 183 165 176 166 171 175 0 184 +16 175 456 185 ?174 186
 187 188 0 0 1 17 176 0 183 174 112 150 189 187 0 178 -15 183 537 0 176 190 0 17
 112 0 183 176 165 109 191 192 0 193 -17 189 0 194 195 178 109 176 187 0 0 +16 1
87 484 196 ?189 175 197 198 0 0 1 17 178 0 194 189 199 150 162 179 0 0 -15 194 3
84 0 189 200 0 17 199 0 194 178 121 159 201 202 0 0 +16 179 451 203 ?162 204 182
 205 0 0 1 81 1 203 584 32 179 0 0 196 206 207 16 204 379 208 ?130 202 179 209 2
02 202 1 16 182 459 210 ?181 179 211 212 0 0 1 30 255 205 550 0 179 212 213 0 +-
.0545 -.0075 .008 0 0 1 30 212 551 0 182 214 205 0 +-.0545 -.0105 .008 0 0 1 30
 213 331 0 215 205 216 0 +693889390390723e-32 -.0075 .005 1 0 0 16 215 228 217 ?
218 219 220 213 0 0 1 30 216 330 0 219 213 221 0 +.0575 -.001 .005 0 1 0 16 219
 234 222 ?223 224 215 216 0 0 1 30 221 329 0 224 216 225 0 +693889390390723e-32
 .0055 .005 1 0 0 16 224 259 226 ?227 228 219 221 0 0 1 30 225 328 0 228 221 209
 0 +-.0575 -.001 .005 0 1 0 16 228 256 229 ?230 231 224 225 0 0 1 30 209 327 0 2
02 225 232 0 +693889390390723e-32 -.0075 .045 1 0 0 16 202 262 233 ?199 234 204
 209 204 204 1 30 232 326 0 234 209 235 0 +.0575 -.001 .045 0 1 0 16 234 267 236
 ?237 238 202 232 0 0 1 30 235 325 0 238 232 239 0 +693889390390723e-32 .0055 .0
45 1 0 0 16 238 240 240 ?241 220 234 235 0 0 1 30 239 324 0 220 235 242 0 +-.057
5 -.001 .045 0 1 0 16 220 248 243 ?244 215 238 239 0 0 1 30 242 323 0 231 239 24
5 0 +-.0575 -.0075 .005 0 0 1 16 231 253 246 ?121 247 228 242 0 0 1 30 245 322 0
 247 242 248 0 +-.0575 .0055 .005 0 0 1 16 247 245 249 ?250 251 231 245 0 0 1 30
 248 321 0 251 245 252 0 +.0575 .0055 .005 0 0 1 16 251 237 253 ?126 254 247 248
 0 0 1 30 252 320 0 254 248 255 0 +.0575 -.0075 .005 0 0 1 16 254 231 256 ?257 2
58 251 252 0 0 1 30 255 9 0 259 252 260 0 +0 -.0105 .045 -1 -12490009027033e-29
 0 16 259 1324 261 ?154 262 263 255 263 263 1 30 260 14 0 262 255 264 0 +.0625 5
20417042793042e-32 .045 0 1 0 16 262 1328 265 ?266 267 259 260 0 0 1 30 264 19 0
 267 260 268 0 +3469446951953615e-33 .0105 .045 -1 -1110223024625156e-31 0 16 26
7 1303 269 ?270 271 262 264 0 0 1 30 268 24 0 271 264 272 0 +-.0625 -52041704279
3042e-32 .045 0 1 0 16 271 1285 273 ?274 275 267 268 0 0 1 30 272 109 0 258 268
 276 0 +-.0625 -520417042793042e-32 0 0 1 0 16 258 1277 277 ?278 263 254 272 0 0
 1 31 255 276 704 0 279 272 280 0 -.0381 .0105 .0317 1110223024625156e-31 -1 0 1
 1110223024625156e-31 0 .0021 16 279 1079 281 ?282 283 284 276 0 0 1 31 280 711
 0 283 276 285 0 -.0254 .0105 .019 1110223024625156e-31 -1 0 1 1110223024625156e
-31 0 .0021 16 283 1030 286 ?287 288 279 280 0 0 1 31 285 718 0 288 280 289 0 -.
0127 .0105 .0317 1110223024625156e-31 -1 0 1 1110223024625156e-31 0 .0021 16 288
 981 290 ?291 292 283 285 0 0 1 31 289 725 0 292 285 293 0 -693889390390723e-32
 .0105 .019 1110223024625156e-31 -1 0 1 1110223024625156e-31 0 .0021 16 292 932
 294 ?295 296 288 289 0 0 1 31 293 732 0 296 289 297 0 --.0127 .0105 .0317 11102
23024625156e-31 -1 0 1 1110223024625156e-31 0 .0021 16 296 883 298 ?299 300 292
 293 0 0 1 31 297 739 0 300 293 301 0 --.0254 .0105 .019 1110223024625156e-31 -1
 0 1 1110223024625156e-31 0 .0021 16 300 834 302 ?303 304 296 297 0 0 1 31 301 7
46 0 304 297 305 0 --.0381 .0105 .0317 1110223024625156e-31 -1 0 1 1110223024625
156e-31 0 .0021 16 304 785 306 ?307 308 300 301 0 0 1 30 305 1294 0 275 301 309
 0 --.0625 -.0075 .045 0 0 -1 16 275 1292 310 ?101 311 271 305 0 0 1 30 309 1299
 0 311 305 312 0 +-.0625 .0075 0 0 0 -1 16 311 1297 313 ?314 315 275 309 0 0 1 3
0 312 1313 0 315 309 316 0 +.0595 .0105 .045 0 0 -1 16 315 1311 317 ?86 318 311
 312 0 0 1 30 316 1317 0 318 312 319 0 +3469446951953615e-33 .0105 .003 -1 -1110
223024625156e-31 0 16 318 1315 320 ?82 321 315 316 0 0 1 30 319 1320 0 321 316 3
22 0 --.0595 .0105 .045 0 0 -1 16 321 1318 323 ?90 324 318 319 0 0 1 31 322 1341
 0 324 319 325 0 +-.0595 -.0075 .045 0 0 1 1 0 0 .003 16 324 1339 326 ?67 327 32
1 322 0 0 1 31 325 1346 0 327 322 328 0 +.0595 -.0075 .045 0 0 1 1 0 0 .003 16 3
27 1344 329 ?75 330 324 325 0 0 1 31 328 1351 0 330 325 331 0 +.0595 .0075 .045
 0 0 1 1 0 0 .003 16 330 1349 332 ?94 333 327 328 0 0 1 31 331 1356 0 333 328 33
4 0 +-.0595 .0075 .045 0 0 1 1 0 0 .003 16 333 1354 335 ?98 336 330 331 0 0 1 30
 334 1362 0 336 331 337 0 +-.0625 -.0075 0 -1 -12490009027033e-29 0 16 336 1360
 338 ?108 339 333 334 0 0 1 30 337 1366 0 339 334 340 0 -.0595 0 0 0 1 0 16 339
 1364 341 ?63 342 336 337 0 0 1 30 340 1369 0 342 337 343 0 --832667268468868e-3
3 .0075 0 -1 -1110223024625156e-31 0 16 342 1367 344 ?59 345 339 340 0 0 1 30 34
3 1375 0 345 340 346 0 +.0625 -.0075 0 0 0 -1 16 345 1373 347 ?55 348 342 343 0
 0 1 30 346 1379 0 348 343 349 0 +.0625 520417042793042e-32 .003 0 1 0 16 348 13
77 350 ?50 351 345 346 0 0 1 30 349 1382 0 351 346 352 0 -.0625 .0075 .045 0 0 -
1 16 351 1380 353 ?71 47 348 349 0 0 1 30 352 1388 0 47 349 354 0 +-.0595 -.0105
 .045 0 0 -1 16 47 1386 355 ?37 27 351 352 0 0 1 30 354 1392 0 27 352 28 0 -.062
5 -.0105 .003 -1 -12490009027033e-29 0 16 27 1390 356 ?30 11 47 354 0 0 1 30 28
 1395 0 11 354 357 0 -.0595 -.0105 .045 0 0 -1 32 357 1488 0 358 28 359 0 +-.059
5 .0075 .003 -.707106781186548 -785046229341888e-31 .707106781186548 -.707106781
186548 -785046229341888e-31 -.707106781186548 .004242640687119285 .003 16 358 14
53 360 ?105 361 0 357 0 0 1 31 359 1487 0 361 357 362 0 -.0595 .0075 .003 1 0 0
 0 0 -1 .003 16 361 1448 363 ?364 365 358 359 0 0 1 31 362 1486 0 365 359 366 0
 +.0595 .0075 .003 0 0 -1 -1 0 0 .003 16 365 1446 367 ?368 369 361 362 0 0 1 31
 366 1485 0 369 362 370 0 +.0595 .0075 .003 0 1 0 0 0 1 .003 16 369 1445 371 ?37
2 373 365 366 0 0 1 31 370 1484 0 373 366 374 0 -.0595 -.0075 .003 0 -1 0 0 0 -1
 .003 16 373 1440 375 ?376 377 369 370 0 0 1 31 374 1483 0 377 370 22 0 +.0595 -
.0075 .003 0 867361737988404e-30 -1 0 1 867361737988404e-30 .003 16 377 1438 378
 ?379 380 373 374 0 0 1 31 22 1482 0 380 374 8 0 +.0595 -.0075 .003 1 0 0 0 0 -1
 .003 16 380 1437 381 ?382 21 377 22 0 0 1 81 1 381 1562 32 380 0 0 378 375 383
 17 382 0 384 385 379 60 386 380 0 376 +16 21 1432 387 ?388 389 380 8 0 0 1 81 1
 387 1570 32 21 0 0 329 310 390 17 388 0 391 392 38 106 48 21 0 0 +16 389 1073 3
93 ?394 395 21 396 0 0 1 81 1 393 1245 32 389 0 0 397 398 399 17 394 0 400 394 3
94 0 401 389 0 0 +16 395 1082 402 ?403 404 389 405 0 0 1 31 396 1172 0 389 406 4
05 0 +.0381 .007 .0317 0 1 0 0 0 1 .0021 31 406 1174 0 407 408 396 0 +.0254 .005
5 .019 0 1 0 0 0 1 .00415 31 405 1171 0 395 396 409 0 +.0381 .007 .0317 0 1 0 0
 0 1 .00415 31 409 1170 0 404 405 198 0 +.0381 .0055 .0317 0 1 0 0 0 1 .00415 16
 404 1085 410 ?411 412 395 409 0 0 1 30 198 561 0 187 409 188 0 +693889390390723
e-32 -.0075 .008 1 0 0 30 188 560 0 175 198 413 0 +-.0545 -.009 .008 0 -1 0 30 4
13 559 0 186 188 414 0 +0 -.0105 .008 -1 -12490009027033e-29 0 16 186 492 415 ?1
84 192 175 413 0 0 1 30 414 558 0 192 413 416 0 +.0545 -.009 .008 0 -1 0 16 192
 489 417 ?191 418 186 414 0 0 1 30 416 556 0 308 414 419 0 +-.0545 -.009 .045 0
 -1 0 16 308 497 420 ?158 197 304 416 0 0 1 30 419 554 0 197 416 421 0 +.0545 -.
009 .045 0 -1 0 16 197 474 422 ?423 187 308 419 0 0 1 30 421 553 0 418 419 214 0
 +.0545 -.0075 .008 0 0 1 16 418 479 206 ?195 211 192 421 0 0 1 30 214 552 0 211
 421 212 0 +.0545 -.0105 .008 0 0 1 16 211 469 424 ?425 182 418 214 0 0 1 81 1 4
24 582 32 211 0 0 210 196 426 17 425 0 427 149 191 151 428 211 0 423 +15 427 533
 0 149 429 0 17 149 0 427 193 425 146 423 197 0 195 -17 191 0 427 425 193 131 11
2 192 0 428 +17 428 0 36 184 154 131 425 211 0 0 -17 423 0 430 431 432 151 149 1
97 0 0 +15 430 421 0 270 433 0 17 431 0 430 75 423 76 154 259 0 434 -17 432 0 43
0 423 435 146 130 204 0 0 -17 435 0 430 432 241 127 237 234 0 0 -17 130 0 194 14
5 195 127 432 204 0 257 +17 145 0 194 436 130 122 257 254 0 437 -17 195 0 194 13
0 189 146 193 418 0 432 +17 257 0 438 237 437 127 145 254 0 435 +15 438 295 0 23
7 439 0 17 237 0 438 142 257 123 435 234 0 241 +17 437 0 438 257 142 122 223 219
 0 218 -17 142 0 438 437 237 139 126 251 0 223 -17 223 0 440 441 218 139 437 219
 0 227 +17 218 0 440 223 442 122 436 215 0 0 +15 440 307 0 218 443 0 17 442 0 44
0 218 441 117 230 228 0 436 -17 436 0 194 121 145 117 218 215 0 0 -17 121 0 194
 199 436 118 134 231 0 444 +17 134 0 445 230 444 117 121 231 0 442 -17 444 0 445
 134 250 118 244 220 0 201 -15 445 303 0 444 446 0 17 250 0 445 444 230 113 138
 247 0 244 +17 244 0 430 241 201 113 444 220 0 0 +17 201 0 430 244 180 118 199 2
02 0 0 -17 180 0 430 201 447 159 158 308 0 199 -17 447 0 430 180 67 155 45 263 0
 0 -17 158 0 173 169 162 155 180 308 0 181 +17 181 0 36 45 184 155 169 182 0 447
 +15 36 407 0 30 17 0 17 45 0 36 37 181 64 447 263 0 46 +17 184 0 36 181 428 166
 165 186 0 0 +17 165 0 183 112 174 131 184 186 0 191 -16 263 402 448 ?45 259 258
 255 259 259 1 17 46 0 449 450 48 64 37 47 0 0 -15 449 1409 0 450 19 0 17 450 0
 449 451 46 99 67 324 0 0 -17 48 0 449 46 451 31 388 21 0 38 -17 451 0 449 48 45
0 106 101 275 0 388 -17 38 0 391 388 386 31 30 27 0 0 -15 391 1411 0 388 452 0 1
7 386 0 391 38 392 12 382 380 0 379 -17 392 0 391 386 388 60 108 336 0 382 -17 3
79 0 384 382 385 12 453 377 0 0 +15 384 1415 0 379 454 0 17 385 0 384 379 382 51
 376 373 0 455 -17 453 0 456 457 39 51 379 377 0 385 -15 456 1413 0 434 458 0 17
 457 0 456 434 453 72 55 345 0 0 -17 39 0 456 453 434 12 26 11 0 386 -17 434 0 4
56 39 457 76 75 327 0 0 -17 26 0 36 154 30 76 39 11 0 431 +17 154 0 36 428 26 15
1 431 259 0 425 +17 75 0 430 266 431 72 434 327 0 459 +17 266 0 430 94 75 68 459
 262 0 460 +17 459 0 461 55 71 72 266 262 0 457 -15 461 125 0 50 462 0 17 55 0 4
61 50 459 51 457 345 0 453 +17 71 0 461 459 50 68 463 351 0 266 +17 50 0 461 71
 55 41 455 348 0 463 +17 463 0 464 465 460 41 71 351 0 466 -15 464 1419 0 460 46
7 0 17 465 0 464 468 463 83 368 365 0 469 -17 460 0 464 463 468 68 94 330 0 0 -1
7 466 0 470 455 471 41 372 369 0 368 -15 470 1417 0 376 472 0 17 455 0 470 376 4
66 51 50 348 0 0 -17 471 0 470 466 376 56 63 339 0 372 -17 372 0 473 469 368 56
 466 369 0 364 +17 368 0 473 372 469 41 465 365 0 0 +15 473 1421 0 368 474 0 17
 469 0 473 368 372 83 364 361 0 475 -17 364 0 476 477 475 56 469 361 0 0 +17 475
 0 476 364 478 83 82 318 0 0 -15 476 1423 0 364 479 0 17 478 0 476 475 477 79 10
5 358 0 0 -17 82 0 480 90 86 79 475 318 0 481 +15 480 123 0 82 482 0 17 90 0 480
 483 82 87 481 321 0 270 +17 86 0 480 82 483 83 468 315 0 465 +17 481 0 484 105
 485 79 90 321 0 478 -15 484 1425 0 485 486 0 17 105 0 484 487 481 102 478 358 0
 477 +17 485 0 484 481 487 87 98 333 0 0 -17 487 0 484 485 105 95 314 311 0 0 -1
7 98 0 430 488 270 95 485 333 0 274 +17 488 0 430 67 98 99 274 271 0 450 -17 270
 0 430 98 94 87 483 267 0 485 +17 274 0 489 314 101 95 488 271 0 487 +15 489 121
 0 274 490 0 17 314 0 489 491 274 102 487 311 0 278 +17 101 0 489 274 491 99 451
 275 0 488 +17 491 0 489 101 314 106 278 258 0 451 -17 278 0 492 59 108 102 491
 258 0 0 +15 492 75 0 278 493 0 17 59 0 492 63 278 56 477 342 0 471 +17 108 0 49
2 278 63 106 392 336 0 491 +17 63 0 492 108 59 60 471 339 0 392 +17 477 0 476 47
8 364 102 59 342 0 314 -14 255 493 68 494 ?200 433 492 6 495 -0 0 200 433 24 81
 1 494 1616 496 493 497 0 498 499 500 14 200 288 499 ?439 493 194 6 501 -0 0 439
 493 24 14 433 1 498 ?493 490 430 6 502 +0 0 493 490 24 50 255 495 108 0 493 502
 503 0 +0 0 0 0 0 1 1 0 0 13 24 49 0 0 0 0 0 0 10 17 14 17 128 504 ?462 0 36 6 5
05 +0 0 462 0 24 81 1 504 1611 496 17 506 0 0 507 508 14 462 126 507 ?482 17 461
 6 509 -0 0 482 17 24 50 505 132 0 17 509 510 0 +0 -.0105 .045 12490009027033e-2
9 -1 0 1 12490009027033e-29 0 50 509 131 0 462 511 505 0 +.0625 520417042793042e
-32 .045 -1 0 0 0 0 1 51 510 1480 0 486 505 512 0 +-.0595 .0075 .045 0 0 1 .003
 1 0 0 14 486 1424 513 ?0 479 484 6 510 +0 0 0 479 24 51 512 1479 0 479 510 514
 0 +380251385934116e-32 .0075 .003 -1 -1110223024625156e-31 0 .003 1110223024625
156e-31 -1 0 14 479 1422 515 ?486 474 476 6 512 +0 0 486 474 24 53 255 514 1478
 0 474 512 516 0 +.0595 .0075 .003 .003 1 0 867361737988403e-30 867361737988403e
-30 0 -1 14 474 1420 517 ?479 467 473 6 514 +0 0 479 467 24 51 516 1477 0 467 51
4 518 0 +.0595 .0075 .045 0 0 -1 .003 -1 0 0 14 467 1418 519 ?474 472 464 6 516
 +0 0 474 472 24 51 518 1476 0 472 516 520 0 +.0595 520417042793042e-32 .003 0 1
 0 .003 0 0 1 14 472 1416 521 ?467 454 470 6 518 +0 0 467 454 24 53 520 1475 0 4
54 518 522 0 +.0595 -.0075 .003 .003 0 -1 0 0 0 -1 14 454 1414 523 ?472 458 384
 6 520 +0 0 472 458 24 51 522 1474 0 458 520 20 0 +.0595 -.0075 .045 0 0 1 .003
 1 0 0 14 458 1412 524 ?454 452 456 6 522 +0 0 454 452 24 51 20 1473 0 452 522 7
 0 +936750677027476e-33 -.0075 .003 1 12490009027033e-29 0 .003 -12490009027033e
-29 1 0 14 452 1410 525 ?458 19 391 6 20 +0 0 458 19 24 81 1 525 1647 496 452 52
6 0 527 524 528 14 19 1408 527 ?452 529 449 6 7 +0 0 452 529 24 81 1 527 1646 49
6 19 530 0 531 525 532 14 529 818 531 ?19 533 534 6 535 +0 0 19 533 24 81 1 531
 1645 496 529 398 0 536 527 537 14 533 813 536 ?529 538 539 6 540 +0 0 529 538 2
4 15 534 821 0 541 529 542 51 535 1166 0 529 540 543 0 --.0381 .0055 .0317 0 1 0
 .00415 0 0 1 50 540 1167 0 533 544 535 0 +-.03395 .007 .0317 0 -1 0 0 0 -1 51 5
43 1163 0 545 535 546 0 --.0254 .0055 .019 0 1 0 .0021 0 0 1 14 545 857 547 ?548
 549 550 6 543 +0 0 548 549 24 50 546 1162 0 548 543 551 0 +-.02125 .007 .019 0
 -1 0 0 0 -1 14 548 862 552 ?553 545 554 6 546 +0 0 553 545 24 51 551 1161 0 553
 546 555 0 --.0254 .0055 .019 0 1 0 .00415 0 0 1 14 553 867 556 ?538 548 557 6 5
51 +0 0 538 548 24 51 555 1158 0 558 551 559 0 --.0127 .0055 .0317 0 1 0 .0021 0
 0 1 14 558 906 560 ?561 562 563 6 555 +0 0 561 562 24 50 559 1157 0 561 555 564
 0 +-.00855 .007 .0317 0 -1 0 0 0 -1 14 561 911 565 ?549 558 566 6 559 +0 0 549
 558 24 51 564 1156 0 549 559 567 0 --.0127 .0055 .0317 0 1 0 .00415 0 0 1 14 54
9 916 568 ?545 561 569 6 564 +0 0 545 561 24 51 567 1153 0 570 564 571 0 -693889
390390723e-32 .0055 .019 0 1 0 .0021 0 0 1 14 570 955 572 ?573 574 575 6 567 +0
 0 573 574 24 50 571 1152 0 573 567 576 0 +.00415 .007 .019 0 -1 0 0 0 -1 14 573
 960 577 ?562 570 578 6 571 +0 0 562 570 24 51 576 1151 0 562 571 579 0 -6938893
90390723e-32 .0055 .019 0 1 0 .00415 0 0 1 14 562 965 580 ?558 573 581 6 576 +0
 0 558 573 24 51 579 1148 0 582 576 583 0 -.0127 .0055 .0317 0 1 0 .0021 0 0 1 1
4 582 1004 584 ?585 586 587 6 579 +0 0 585 586 24 50 583 1147 0 585 579 588 0 +.
01685 .007 .0317 0 -1 0 0 0 -1 14 585 1009 589 ?574 582 590 6 583 +0 0 574 582 2
4 51 588 1146 0 574 583 591 0 -.0127 .0055 .0317 0 1 0 .00415 0 0 1 14 574 1014
 592 ?570 585 593 6 588 +0 0 570 585 24 51 591 1143 0 594 588 595 0 -.0254 .0055
 .019 0 1 0 .0021 0 0 1 14 594 1053 596 ?597 598 599 6 591 +0 0 597 598 24 50 59
5 1142 0 597 591 600 0 +.02955 .007 .019 0 -1 0 0 0 -1 14 597 1058 601 ?586 594
 602 6 595 +0 0 586 594 24 51 600 1141 0 586 595 603 0 -.0254 .0055 .019 0 1 0 .
00415 0 0 1 14 586 1063 604 ?582 597 605 6 600 +0 0 582 597 24 51 603 1138 0 606
 600 607 0 -.0381 .0055 .0317 0 1 0 .0021 0 0 1 14 606 1102 608 ?609 190 610 6 6
03 +0 0 609 190 24 50 607 1137 0 609 603 611 0 +.04225 .007 .0317 0 -1 0 0 0 -1
 14 609 1107 612 ?598 606 400 6 607 +0 0 598 606 24 51 611 1136 0 598 607 613 0
 -.0381 .0055 .0317 0 1 0 .00415 0 0 1 14 598 1112 614 ?594 609 615 6 611 +0 0 5
94 609 24 50 613 549 0 190 611 616 0 +0 0 .008 0 0 1 1 0 0 14 190 534 617 ?606 4
29 183 6 613 +0 0 606 429 24 50 616 547 0 429 613 618 0 +.0545 -.009 .008 -1 0 0
 0 0 1 14 429 530 619 ?190 177 427 6 616 +0 0 190 177 24 50 618 545 0 177 616 62
0 0 +-.0545 -.009 .008 -1 0 0 0 0 1 14 177 522 621 ?429 443 173 6 618 -0 0 429 4
43 24 50 620 319 0 443 618 622 0 +0 0 .005 0 0 1 1 0 0 14 443 304 623 ?177 446 4
40 6 620 +0 0 177 446 24 50 622 317 0 446 620 624 0 +-.0575 -.001 .005 1 0 0 0 0
 -1 14 446 300 625 ?443 626 445 6 622 +0 0 443 626 24 50 624 316 0 626 622 627 0
 +693889390390723e-32 .0055 .005 0 -1 0 0 0 -1 14 626 296 628 ?446 439 629 6 624
 +0 0 446 439 24 50 627 315 0 439 624 501 0 +.0575 -.001 .005 1 0 0 0 0 -1 14 43
9 292 630 ?626 200 438 6 627 -0 0 626 200 24 50 501 314 0 200 627 502 0 +6938893
90390723e-32 -.0075 .005 0 -1 0 0 0 -1 50 502 3 0 433 501 495 0 +0 0 .045 0 0 1
 1 0 0 81 1 630 1618 496 439 631 0 499 628 632 80 7 CCCCCDI12 legal_owners0 16 1
 lCZ1 496 0 633 8001 0 0 0 0 3 5 0 0 0 FFFFTFTFFFFFFFFF2 81 1 631 366 32 439 0 6
30 634 157 635 81 1 499 1617 496 200 636 0 494 630 637 81 1 628 1619 496 626 33
 0 630 625 638 83 255 3 632 .615686274509804 .811764705882353 .929411764705882 8
1 1 33 1268 32 626 0 628 639 29 640 81 1 625 1620 496 446 634 0 628 623 641 83 3
 638 .615686274509804 .811764705882353 .929411764705882 81 1 634 365 32 446 0 62
5 642 631 643 81 1 623 1621 496 443 642 0 625 621 644 83 3 641 .615686274509804
 .811764705882353 .929411764705882 81 1 642 363 32 443 0 623 222 634 645 81 1 62
1 1622 496 177 646 0 623 619 647 83 3 644 .615686274509804 .811764705882353 .929
411764705882 81 1 646 591 32 177 0 621 648 649 650 81 1 619 1623 496 429 649 0 6
21 617 651 83 3 647 .615686274509804 .811764705882353 .929411764705882 81 1 649
 592 32 429 0 619 646 636 652 81 1 617 1624 496 190 648 0 619 608 653 83 3 651 .
615686274509804 .811764705882353 .929411764705882 81 1 648 590 32 190 0 617 417
 646 654 81 1 608 1625 496 606 639 0 617 612 655 83 3 653 .615686274509804 .8117
64705882353 .929411764705882 81 1 639 1266 32 606 0 608 656 33 657 81 1 612 1626
 496 609 658 0 608 614 659 83 3 655 .615686274509804 .811764705882353 .929411764
705882 81 1 658 1259 32 609 0 612 660 661 662 81 1 614 1627 496 598 663 0 612 59
6 664 83 3 659 .615686274509804 .811764705882353 .929411764705882 81 1 663 1252
 32 598 0 614 665 666 667 81 1 596 1628 496 594 656 0 614 601 668 83 3 664 .6156
86274509804 .811764705882353 .929411764705882 81 1 656 1265 32 594 0 596 669 639
 670 81 1 601 1629 496 597 660 0 596 604 671 83 3 668 .615686274509804 .81176470
5882353 .929411764705882 81 1 660 1258 32 597 0 601 672 658 673 81 1 604 1630 49
6 586 665 0 601 584 674 83 3 671 .615686274509804 .811764705882353 .929411764705
882 81 1 665 1251 32 586 0 604 675 663 676 81 1 584 1631 496 582 669 0 604 589 6
77 83 3 674 .615686274509804 .811764705882353 .929411764705882 81 1 669 1264 32
 582 0 584 678 656 679 81 1 589 1632 496 585 672 0 584 592 680 83 3 677 .6156862
74509804 .811764705882353 .929411764705882 81 1 672 1257 32 585 0 589 681 660 68
2 81 1 592 1633 496 574 675 0 589 572 683 83 3 680 .615686274509804 .81176470588
2353 .929411764705882 81 1 675 1250 32 574 0 592 684 665 685 81 1 572 1634 496 5
70 678 0 592 577 686 83 3 683 .615686274509804 .811764705882353 .929411764705882
 81 1 678 1263 32 570 0 572 687 669 688 81 1 577 1635 496 573 681 0 572 580 689
 83 3 686 .615686274509804 .811764705882353 .929411764705882 81 1 681 1256 32 57
3 0 577 690 672 691 81 1 580 1636 496 562 684 0 577 560 692 83 3 689 .6156862745
09804 .811764705882353 .929411764705882 81 1 684 1249 32 562 0 580 693 675 694 8
1 1 560 1637 496 558 687 0 580 565 695 83 3 692 .615686274509804 .81176470588235
3 .929411764705882 81 1 687 1262 32 558 0 560 696 678 697 81 1 565 1638 496 561
 690 0 560 568 698 83 3 695 .615686274509804 .811764705882353 .929411764705882 8
1 1 690 1255 32 561 0 565 699 681 700 81 1 568 1639 496 549 693 0 565 547 701 83
 3 698 .615686274509804 .811764705882353 .929411764705882 81 1 693 1248 32 549 0
 568 702 684 703 81 1 547 1640 496 545 696 0 568 552 704 83 3 701 .6156862745098
04 .811764705882353 .929411764705882 81 1 696 1261 32 545 0 547 661 687 705 81 1
 552 1641 496 548 699 0 547 556 706 83 3 704 .615686274509804 .811764705882353 .
929411764705882 81 1 699 1254 32 548 0 552 666 690 707 81 1 556 1642 496 553 702
 0 552 708 709 83 3 706 .615686274509804 .811764705882353 .929411764705882 81 1
 702 1247 32 553 0 556 398 693 710 81 1 708 1643 496 538 661 0 556 536 711 83 3
 709 .615686274509804 .811764705882353 .929411764705882 14 538 808 708 ?533 553
 712 6 544 +0 0 533 553 24 81 1 661 1260 32 538 0 708 658 696 713 81 1 536 1644
 496 533 666 0 708 531 714 83 3 711 .615686274509804 .811764705882353 .929411764
705882 81 1 666 1253 32 533 0 536 663 699 715 83 3 714 .615686274509804 .8117647
05882353 .929411764705882 80 1 32 716 717 9000 0 0 0 0 3 6 0 0 0 FFTFTFTTFFFFFFF
F1 82 255 3 715 16 7 2 79 255 9 717 BTI/DetId82 3 713 16 14 2 15 712 801 0 718 5
38 719 51 544 1168 0 538 0 540 0 --.0381 .0055 .0317 0 1 0 .0021 0 0 1 17 718 0
 712 718 718 0 720 721 0 0 -15 719 802 0 307 538 0 17 307 0 719 307 307 0 722 30
4 0 0 +17 722 0 723 722 722 0 307 304 0 0 -15 723 745 0 722 482 724 14 482 124 7
25 ?490 462 723 6 511 -0 0 490 462 24 15 724 738 0 726 482 727 17 726 0 724 726
 726 0 303 300 0 0 -15 727 731 0 728 482 729 17 728 0 727 728 728 0 299 296 0 0
 -15 729 724 0 730 482 731 17 730 0 729 730 730 0 295 292 0 0 -15 731 717 0 732
 482 733 17 732 0 731 732 732 0 291 288 0 0 -15 733 710 0 734 482 735 17 734 0 7
33 734 734 0 287 283 0 0 -15 735 703 0 736 482 480 17 736 0 735 736 736 0 282 27
9 0 0 -17 282 0 737 282 282 0 736 279 0 0 +15 737 1096 0 282 606 0 17 287 0 738
 287 287 0 734 283 0 0 +15 738 1047 0 287 594 0 17 291 0 739 291 291 0 732 288 0
 0 +15 739 998 0 291 582 0 17 295 0 740 295 295 0 730 292 0 0 +15 740 949 0 295
 570 0 17 299 0 741 299 299 0 728 296 0 0 +15 741 900 0 299 558 0 17 303 0 742 3
03 303 0 726 300 0 0 +15 742 851 0 303 545 0 81 1 725 1613 496 482 743 0 507 744
 745 14 490 122 744 ?433 482 489 6 503 +0 0 433 482 24 50 511 130 0 482 503 509
 0 +3469446951953615e-33 .0105 .045 1110223024625156e-31 -1 0 1 1110223024625156
e-31 0 50 503 129 0 490 495 511 0 +-.0625 -520417042793042e-32 .045 -1 0 0 0 0 1
 81 1 744 1614 496 490 746 0 725 498 747 81 1 746 1604 32 490 0 744 748 506 749
 81 1 498 1615 496 433 750 0 744 494 751 83 3 747 .615686274509804 .811764705882
353 .929411764705882 81 1 750 1606 32 433 0 498 506 743 752 83 3 751 .6156862745
09804 .811764705882353 .929411764705882 81 1 506 1605 32 17 0 504 746 750 753 81
 1 743 1607 32 482 0 725 750 0 754 82 3 752 17 13 2 82 3 754 17 14 2 82 3 753 17
 12 2 81 1 748 1603 32 462 0 507 497 746 755 82 3 749 17 11 2 81 1 507 1612 496
 462 748 0 504 725 756 81 1 497 1602 32 493 0 494 757 748 758 82 3 755 17 10 2 8
1 1 757 1601 32 472 0 521 759 497 760 82 3 758 17 9 2 81 1 521 1650 496 472 757
 0 523 519 761 81 1 759 1600 32 479 0 515 526 757 762 82 3 760 17 8 2 81 1 515 1
653 496 479 759 0 517 513 763 81 1 526 1599 32 452 0 525 764 759 765 82 3 762 17
 7 2 81 1 764 1598 32 486 0 513 766 526 767 82 3 765 17 6 2 81 1 513 1654 496 48
6 764 0 515 0 768 81 1 766 1597 32 467 0 519 530 764 769 82 3 767 17 5 2 81 1 51
9 1651 496 467 766 0 521 517 770 81 1 530 1596 32 19 0 527 771 766 772 82 3 769
 17 4 2 81 1 771 1595 32 458 0 524 773 530 774 82 3 772 17 3 2 81 1 524 1648 496
 458 771 0 525 523 775 81 1 773 1594 32 474 0 517 776 771 777 82 3 774 17 2 2 81
 1 517 1652 496 474 773 0 519 515 778 81 1 776 1593 32 454 0 523 448 773 779 82
 3 777 17 1 2 81 1 523 1649 496 454 776 0 524 521 780 81 1 448 1592 32 263 0 0 2
61 776 781 82 3 779 17 0 2 81 1 261 1591 32 259 0 0 273 448 782 82 3 781 17 31 1
 81 1 273 1590 32 271 0 0 277 261 783 82 3 782 17 30 1 81 1 277 1589 32 258 0 0
 265 273 784 82 3 783 17 29 1 81 1 265 1588 32 262 0 0 269 277 785 82 3 784 17 2
8 1 81 1 269 1587 32 267 0 0 350 265 786 82 3 785 17 27 1 81 1 350 1586 32 348 0
 0 341 269 787 82 3 786 17 26 1 81 1 341 1585 32 339 0 0 320 350 788 82 3 787 17
 25 1 81 1 320 1584 32 318 0 0 344 341 789 82 3 788 17 24 1 81 1 344 1583 32 342
 0 0 356 320 790 82 3 789 17 23 1 81 1 356 1582 32 27 0 0 338 344 791 82 3 790 1
7 22 1 81 1 338 1581 32 336 0 0 323 356 792 82 3 791 17 21 1 81 1 323 1580 32 32
1 0 0 335 338 793 82 3 792 17 20 1 81 1 335 1579 32 333 0 0 313 323 794 82 3 793
 17 19 1 81 1 313 1578 32 311 0 0 360 335 795 82 3 794 17 18 1 81 1 360 1577 32
 358 0 0 317 313 796 82 3 795 17 17 1 81 1 317 1576 32 315 0 0 332 360 797 82 3
 796 17 16 1 81 1 332 1575 32 330 0 0 353 317 798 82 3 797 17 15 1 81 1 353 1574
 32 351 0 0 326 332 799 82 3 798 17 14 1 81 1 326 1573 32 324 0 0 355 353 800 82
 3 799 17 13 1 81 1 355 1572 32 47 0 0 310 326 801 82 3 800 17 12 1 81 1 310 157
1 32 275 0 0 387 355 802 82 3 801 17 11 1 82 3 802 17 10 1 83 3 780 .61568627450
9804 .811764705882353 .929411764705882 83 3 778 .615686274509804 .81176470588235
3 .929411764705882 83 3 775 .615686274509804 .811764705882353 .929411764705882 8
3 3 770 .615686274509804 .811764705882353 .929411764705882 83 3 768 .61568627450
9804 .811764705882353 .929411764705882 83 3 763 .615686274509804 .81176470588235
3 .929411764705882 83 3 761 .615686274509804 .811764705882353 .929411764705882 8
3 3 756 .615686274509804 .811764705882353 .929411764705882 83 3 745 .61568627450
9804 .811764705882353 .929411764705882 17 720 0 539 720 720 0 718 721 0 0 +16 72
1 779 803 ?720 804 805 806 0 0 1 81 1 803 1239 32 721 0 0 402 807 808 16 804 788
 809 ?541 284 721 810 0 0 1 16 805 840 811 ?812 721 813 814 0 0 1 31 806 1196 0
 721 0 810 0 +-.0381 .007 .0317 0 1 0 0 0 1 .0021 31 810 1195 0 804 806 815 0 +-
.0381 .007 .0317 0 1 0 0 0 1 .00415 31 815 1194 0 284 810 816 0 +-.0381 .0055 .0
317 0 1 0 0 0 1 .00415 16 284 791 817 ?818 279 804 815 0 0 1 31 816 1192 0 819 8
15 820 0 +-.0254 .007 .019 0 1 0 0 0 1 .0021 16 819 828 807 ?821 813 822 816 0 0
 1 31 820 1191 0 813 816 814 0 +-.0254 .007 .019 0 1 0 0 0 1 .00415 16 813 837 8
23 ?824 805 819 820 0 0 1 31 814 1190 0 805 820 825 0 +-.0254 .0055 .019 0 1 0 0
 0 1 .00415 31 825 1188 0 826 814 827 0 +-.0127 .007 .0317 0 1 0 0 0 1 .0021 16
 826 877 828 ?829 830 831 825 0 0 1 31 827 1187 0 830 825 832 0 +-.0127 .007 .03
17 0 1 0 0 0 1 .00415 16 830 886 833 ?834 822 826 827 0 0 1 31 832 1186 0 822 82
7 835 0 +-.0127 .0055 .0317 0 1 0 0 0 1 .00415 16 822 889 836 ?837 819 830 832 0
 0 1 31 835 1184 0 838 832 839 0 +693889390390723e-32 .007 .019 0 1 0 0 0 1 .002
1 16 838 926 840 ?841 842 843 835 0 0 1 31 839 1183 0 842 835 844 0 +69388939039
0723e-32 .007 .019 0 1 0 0 0 1 .00415 16 842 935 845 ?846 831 838 839 0 0 1 31 8
44 1182 0 831 839 847 0 +693889390390723e-32 .0055 .019 0 1 0 0 0 1 .00415 16 83
1 938 848 ?849 826 842 844 0 0 1 31 847 1180 0 850 844 851 0 +.0127 .007 .0317 0
 1 0 0 0 1 .0021 16 850 975 852 ?853 854 407 847 0 0 1 31 851 1179 0 854 847 855
 0 +.0127 .007 .0317 0 1 0 0 0 1 .00415 16 854 984 856 ?857 843 850 851 0 0 1 31
 855 1178 0 843 851 858 0 +.0127 .0055 .0317 0 1 0 0 0 1 .00415 16 843 987 859 ?
860 838 854 855 0 0 1 31 858 1176 0 412 855 408 0 +.0254 .007 .019 0 1 0 0 0 1 .
0021 16 412 1024 397 ?861 862 404 858 0 0 1 31 408 1175 0 862 858 406 0 +.0254 .
007 .019 0 1 0 0 0 1 .00415 16 862 1033 863 ?864 407 412 408 0 0 1 81 1 863 1237
 32 862 0 0 856 402 865 17 864 0 605 864 864 0 866 862 0 0 +16 407 1036 867 ?868
 850 862 406 0 0 1 81 1 867 1230 32 407 0 0 859 410 869 17 868 0 870 868 868 0 8
71 407 0 0 +15 870 660 0 868 626 872 17 871 0 873 871 871 0 868 407 0 0 -15 873
 1067 0 871 586 0 15 872 653 0 411 626 874 17 411 0 872 411 411 0 875 404 0 0 +1
5 874 299 0 116 626 0 17 116 0 874 138 126 113 241 238 0 250 -17 138 0 874 227 1
16 135 250 247 0 441 -17 126 0 874 116 227 123 142 251 0 237 +17 241 0 430 435 2
44 123 116 238 0 0 +17 227 0 874 126 138 139 441 224 0 0 +17 441 0 440 442 223 1
35 227 224 0 230 -17 230 0 445 250 134 135 442 228 0 0 +17 875 0 876 875 875 0 4
11 404 0 0 -15 876 1116 0 875 598 0 81 1 859 1229 32 843 0 0 848 867 877 81 1 41
0 1231 32 404 0 0 867 809 878 82 3 869 16 12 1 81 1 809 1232 32 804 0 0 410 823
 879 82 3 878 16 13 1 81 1 823 1233 32 813 0 0 809 833 880 82 3 879 16 14 1 81 1
 833 1234 32 830 0 0 823 845 881 82 3 880 16 15 1 81 1 845 1235 32 842 0 0 833 8
56 882 82 3 881 16 16 1 81 1 856 1236 32 854 0 0 845 863 883 82 3 882 16 17 1 82
 3 883 16 18 1 81 1 848 1228 32 831 0 0 836 859 884 82 3 877 16 11 1 81 1 836 12
27 32 822 0 0 811 848 885 82 3 884 16 10 1 81 1 811 1226 32 805 0 0 817 836 886
 82 3 885 16 9 1 81 1 817 1225 32 284 0 0 281 811 887 82 3 886 16 8 1 81 1 281 1
224 32 279 0 0 286 817 888 82 3 887 16 7 1 81 1 286 1223 32 283 0 0 290 281 889
 82 3 888 16 6 1 81 1 290 1222 32 288 0 0 294 286 890 82 3 889 16 5 1 81 1 294 1
221 32 292 0 0 298 290 891 82 3 890 16 4 1 81 1 298 1220 32 296 0 0 302 294 892
 82 3 891 16 3 1 81 1 302 1219 32 300 0 0 306 298 893 82 3 892 16 2 1 81 1 306 1
218 32 304 0 0 208 302 894 82 3 893 16 1 1 81 1 208 599 32 204 0 0 233 306 895 8
2 3 894 16 0 1 81 1 233 598 32 202 0 0 636 208 896 82 3 895 12 13 1 81 1 636 594
 32 200 0 499 649 233 897 82 3 896 12 12 1 82 3 897 12 4 2 15 605 1066 0 864 586
 873 17 866 0 898 866 866 0 864 862 0 0 -15 898 1062 0 866 597 0 81 1 402 1238 3
2 395 0 0 863 803 899 82 3 865 16 19 1 82 3 899 16 20 1 81 1 397 1244 32 412 0 0
 852 393 900 17 861 0 602 861 861 0 901 412 0 0 +15 602 1061 0 861 597 898 17 90
1 0 599 901 901 0 861 412 0 0 -15 599 1046 0 901 594 738 81 1 852 1243 32 850 0
 0 840 397 902 82 3 900 16 26 1 81 1 840 1242 32 838 0 0 828 852 903 82 3 902 16
 25 1 81 1 828 1241 32 826 0 0 807 840 904 82 3 903 16 24 1 81 1 807 1240 32 819
 0 0 803 828 905 82 3 904 16 23 1 82 3 905 16 22 1 17 860 0 906 860 860 0 907 84
3 0 0 +15 906 667 0 860 626 870 17 907 0 908 907 907 0 860 843 0 0 -15 908 1018
 0 907 574 0 17 857 0 593 857 857 0 909 854 0 0 +15 593 1017 0 857 574 908 17 90
9 0 910 909 909 0 857 854 0 0 -15 910 1013 0 909 585 0 17 853 0 590 853 853 0 91
1 850 0 0 +15 590 1012 0 853 585 910 17 911 0 587 911 911 0 853 850 0 0 -15 587
 997 0 911 582 739 17 849 0 912 849 849 0 913 831 0 0 +15 912 674 0 849 626 906
 17 913 0 914 913 913 0 849 831 0 0 -15 914 969 0 913 562 0 17 846 0 581 846 846
 0 915 842 0 0 +15 581 968 0 846 562 914 17 915 0 916 915 915 0 846 842 0 0 -15
 916 964 0 915 573 0 17 841 0 578 841 841 0 917 838 0 0 +15 578 963 0 841 573 91
6 17 917 0 575 917 917 0 841 838 0 0 -15 575 948 0 917 570 740 17 837 0 918 837
 837 0 919 822 0 0 +15 918 681 0 837 626 912 17 919 0 920 919 919 0 837 822 0 0
 -15 920 920 0 919 549 0 17 834 0 569 834 834 0 921 830 0 0 +15 569 919 0 834 54
9 920 17 921 0 922 921 921 0 834 830 0 0 -15 922 915 0 921 561 0 17 829 0 566 82
9 829 0 923 826 0 0 +15 566 914 0 829 561 922 17 923 0 563 923 923 0 829 826 0 0
 -15 563 899 0 923 558 741 17 824 0 557 824 824 0 924 813 0 0 +15 557 870 0 824
 553 925 17 924 0 926 924 924 0 824 813 0 0 -15 926 866 0 924 548 0 15 925 871 0
 927 553 0 17 927 0 925 927 927 0 812 805 0 0 -17 812 0 928 812 812 0 927 805 0
 0 +15 928 688 0 812 626 918 17 821 0 554 821 821 0 929 819 0 0 +15 554 865 0 82
1 548 926 17 929 0 550 929 929 0 821 819 0 0 -15 550 850 0 929 545 742 17 818 0
 629 818 818 0 930 284 0 0 +15 629 695 0 818 626 928 17 930 0 542 930 930 0 818
 284 0 0 -15 542 822 0 930 529 0 17 541 0 534 541 541 0 931 804 0 0 +17 931 0 93
2 931 931 0 541 804 0 0 -15 932 817 0 931 533 0 82 3 808 16 21 1 15 539 816 0 72
0 533 932 81 1 398 1246 32 529 0 531 393 702 933 82 3 710 16 1 2 82 3 933 16 0 2
 82 3 707 16 8 2 82 3 705 16 15 2 82 3 703 16 2 2 82 3 700 16 9 2 82 3 697 16 16
 2 82 3 694 16 3 2 82 3 691 16 10 2 82 3 688 16 17 2 82 3 685 16 4 2 82 3 682 16
 11 2 82 3 679 16 18 2 82 3 676 16 5 2 82 3 673 16 12 2 82 3 670 16 19 2 82 3 66
7 16 6 2 82 3 662 16 13 2 82 3 657 16 20 2 81 1 417 589 32 192 0 0 185 648 934 8
2 3 654 12 0 2 81 1 185 588 32 175 0 0 422 417 935 82 3 934 12 9 1 81 1 422 587
 32 197 0 0 420 185 936 82 3 935 12 8 1 81 1 420 586 32 308 0 0 206 422 937 82 3
 936 12 7 1 81 1 206 585 32 418 0 0 203 420 938 82 3 937 12 6 1 82 3 938 12 5 1
 82 3 652 12 2 2 82 3 650 12 1 2 81 1 222 361 32 219 0 0 229 642 939 82 3 645 10
 1 2 81 1 229 360 32 228 0 0 226 222 940 82 3 939 10 11 1 81 1 226 359 32 224 0
 0 217 229 941 82 3 940 10 10 1 81 1 217 358 32 215 0 0 253 226 942 82 3 941 10
 9 1 81 1 253 357 32 251 0 0 249 217 943 82 3 942 10 8 1 81 1 249 356 32 247 0 0
 256 253 944 82 3 943 10 7 1 81 1 256 355 32 254 0 0 246 249 945 82 3 944 10 6 1
 81 1 246 354 32 231 0 0 236 256 946 82 3 945 10 5 1 81 1 236 353 32 234 0 0 243
 246 947 82 3 946 10 4 1 81 1 243 352 32 220 0 0 240 236 948 82 3 947 10 3 1 81
 1 240 351 32 238 0 0 141 243 949 82 3 948 10 2 1 81 1 141 349 32 139 0 0 125 24
0 950 82 3 949 10 1 1 81 1 125 348 32 123 0 0 137 141 951 82 3 950 10 7 0 81 1 1
37 347 32 135 0 0 115 125 952 82 3 951 10 6 0 81 1 115 346 32 113 0 0 144 137 95
3 82 3 952 10 5 0 81 1 144 345 32 122 0 0 129 115 954 82 3 953 10 4 0 81 1 129 3
44 32 127 0 0 133 144 955 82 3 954 10 3 0 81 1 133 343 32 117 0 0 120 129 956 82
 3 955 10 2 0 81 1 120 342 32 118 0 0 957 133 958 82 3 956 10 1 0 81 1 957 178 3
2 1 0 959 0 120 960 82 3 958 10 0 0 81 1 959 1608 961 1 957 14 0 0 962 82 3 960
 6 0 3 80 1 961 963 964 8038 0 0 0 0 0 0 0 0 0 TTTTTTTTTTTTTFTF10 81 1 14 1609 9
63 1 959 2 0 0 965 98 255 6 962 80 97 114 116 32 49 80 1 963 966 967 8017 0 0 0
 0 0 0 0 0 0 TTTTTTTTTTTTTFTF3 84 255 6 965 Part 179 13 967 SDL/TYSA_NAME79 14 9
64 SDL/TYSA_UNAME82 3 643 10 3 2 82 3 640 16 22 2 83 3 637 .615686274509804 .811
764705882353 .929411764705882 81 1 157 572 32 155 0 0 631 168 968 82 3 635 10 4
 2 81 1 168 573 32 166 0 0 157 161 969 82 3 968 12 0 0 81 1 161 574 32 159 0 0 1
68 170 970 82 3 969 12 1 0 82 3 970 12 2 0 79 15 633 SDL/TYSA_COLOUR15 615 1115
 0 403 598 876 17 403 0 615 403 403 0 971 395 0 0 +17 971 0 972 971 971 0 403 39
5 0 0 -15 972 1111 0 971 609 0 15 400 1110 0 394 609 972 15 610 1095 0 401 606 7
37 17 401 0 610 401 401 0 394 389 0 0 -83 3 537 .615686274509804 .81176470588235
3 .929411764705882 83 3 532 .615686274509804 .811764705882353 .929411764705882 8
3 3 528 .615686274509804 .811764705882353 .929411764705882 83 3 508 .61568627450
9804 .811764705882353 .929411764705882 83 3 500 .615686274509804 .81176470588235
3 .929411764705882 17 94 0 430 270 266 91 460 330 0 483 +17 483 0 480 86 90 91 2
70 267 0 468 -17 468 0 464 460 465 91 86 315 0 0 -17 67 0 430 447 488 64 450 324
 0 45 +17 376 0 470 471 455 60 385 373 0 0 +17 193 0 427 191 149 109 195 418 0 1
89 -81 1 210 581 32 182 0 0 415 424 973 81 1 196 583 32 187 0 0 424 203 974 82 3
 426 12 2 1 82 3 974 12 3 1 81 1 415 580 32 186 0 0 111 210 975 82 3 973 12 1 1
 81 1 111 579 32 109 0 0 148 415 976 82 3 975 12 0 1 81 1 148 578 32 146 0 0 164
 111 977 82 3 976 12 7 0 81 1 164 577 32 131 0 0 153 148 978 82 3 977 12 6 0 81
 1 153 576 32 151 0 0 170 164 979 82 3 978 12 5 0 82 3 979 12 4 0 82 3 399 16 27
 1 81 1 329 1569 32 327 0 0 25 387 980 82 3 390 17 9 1 81 1 25 1568 32 11 0 0 34
7 329 981 82 3 980 17 8 1 81 1 347 1567 32 345 0 0 371 25 982 82 3 981 17 7 1 81
 1 371 1566 32 369 0 0 363 347 983 82 3 982 17 6 1 81 1 363 1565 32 361 0 0 367
 371 984 82 3 983 17 5 1 81 1 367 1564 32 365 0 0 375 363 985 82 3 984 17 4 1 81
 1 375 1563 32 373 0 0 381 367 986 82 3 985 17 3 1 82 3 986 17 2 1 81 1 378 1561
 32 377 0 0 89 381 987 82 3 383 17 1 1 81 1 89 1560 32 87 0 0 97 378 988 82 3 98
7 17 0 1 81 1 97 1559 32 95 0 0 81 89 989 82 3 988 17 17 0 81 1 81 1558 32 79 0
 0 104 97 990 82 3 989 17 16 0 81 1 104 1557 32 102 0 0 93 81 991 82 3 990 17 15
 0 81 1 93 1556 32 91 0 0 70 104 992 82 3 991 17 14 0 81 1 70 1555 32 68 0 0 66
 93 993 82 3 992 17 13 0 81 1 66 1554 32 64 0 0 43 70 994 82 3 993 17 12 0 81 1
 43 1553 32 99 0 0 40 66 995 82 3 994 17 11 0 82 3 995 17 10 0 82 3 207 12 4 1 8
2 3 172 12 3 0 81 1 42 1551 32 106 0 0 78 40 996 81 1 78 1550 32 76 0 0 74 42 99
7 82 3 996 17 8 0 81 1 74 1549 32 72 0 0 58 78 998 82 3 997 17 7 0 81 1 58 1548
 32 56 0 0 49 74 999 82 3 998 17 6 0 81 1 49 1547 32 41 0 0 85 58 1000 82 3 999
 17 5 0 81 1 85 1546 32 83 0 0 62 49 1001 82 3 1000 17 4 0 81 1 62 1545 32 60 0
 0 34 85 1002 82 3 1001 17 3 0 81 1 34 1544 32 51 0 0 29 62 1003 82 3 1002 17 2
 0 82 3 1003 17 1 0 82 3 44 17 9 0 82 3 35 17 0 0 19 18 138 0 1 0 10 6 0 S0 74 4
 CI16 index_map_offset0 0 1 dCCZ20 16 5 0 0 743 959 14 2 513 0 0 0 0 0 0 0 0 0 0
 0 0 0 0 0 80 1 13 496 1004 8040 0 0 0 0 3 5 0 0 0 TTTFFFFFFFFFFFFF2 83 3 15 .61
5686274509804 .811764705882353 .929411764705882 79 17 1004 SDL/TYSA_COLOUR_21 0
 
